name C:\Users\r0593348\3dpredictsim\Results\Final\Fal_s1_bCst_PF_None_ls150_MT_k500_MTP_T17_ig24.mot
datacolumns 128
datarows 4
range 1.70165885 1.73569203
endheader
time	pelvis_tilt	pelvis_list	pelvis_rotation	pelvis_tx	pelvis_ty	pelvis_tz	hip_flexion_l	hip_adduction_l	hip_rotation_l	hip_flexion_r	hip_adduction_r	hip_rotation_r	knee_angle_l	knee_angle_r	ankle_angle_l	ankle_angle_r	subtalar_angle_l	subtalar_angle_r	mtj_angle_l	mtj_angle_r	mtp_angle_l	mtp_angle_r	lumbar_extension	lumbar_bending	lumbar_rotation	arm_flex_l	arm_add_l	arm_rot_l	arm_flex_r	arm_add_r	arm_rot_r	elbow_flex_l	elbow_flex_r	pro_sup_l	pro_sup_r	glut_med1_l/activation	glut_med2_l/activation	glut_med3_l/activation	glut_min1_l/activation	glut_min2_l/activation	glut_min3_l/activation	semimem_l/activation	semiten_l/activation	bifemlh_l/activation	bifemsh_l/activation	sar_l/activation	add_long_l/activation	add_brev_l/activation	add_mag1_l/activation	add_mag2_l/activation	add_mag3_l/activation	tfl_l/activation	pect_l/activation	grac_l/activation	glut_max1_l/activation	glut_max2_l/activation	glut_max3_l/activation	iliacus_l/activation	psoas_l/activation	quad_fem_l/activation	gem_l/activation	peri_l/activation	rect_fem_l/activation	vas_med_l/activation	vas_int_l/activation	vas_lat_l/activation	med_gas_l/activation	lat_gas_l/activation	soleus_l/activation	tib_post_l/activation	flex_dig_l/activation	flex_hal_l/activation	tib_ant_l/activation	per_brev_l/activation	per_long_l/activation	per_tert_l/activation	ext_dig_l/activation	ext_hal_l/activation	ercspn_l/activation	intobl_l/activation	extobl_l/activation	glut_med1_r/activation	glut_med2_r/activation	glut_med3_r/activation	glut_min1_r/activation	glut_min2_r/activation	glut_min3_r/activation	semimem_r/activation	semiten_r/activation	bifemlh_r/activation	bifemsh_r/activation	sar_r/activation	add_long_r/activation	add_brev_r/activation	add_mag1_r/activation	add_mag2_r/activation	add_mag3_r/activation	tfl_r/activation	pect_r/activation	grac_r/activation	glut_max1_r/activation	glut_max2_r/activation	glut_max3_r/activation	iliacus_r/activation	psoas_r/activation	quad_fem_r/activation	gem_r/activation	peri_r/activation	rect_fem_r/activation	vas_med_r/activation	vas_int_r/activation	vas_lat_r/activation	med_gas_r/activation	lat_gas_r/activation	soleus_r/activation	tib_post_r/activation	flex_dig_r/activation	flex_hal_r/activation	tib_ant_r/activation	per_brev_r/activation	per_long_r/activation	per_tert_r/activation	ext_dig_r/activation	ext_hal_r/activation	ercspn_r/activation	intobl_r/activation	extobl_r/activation	
          1.70165885	         -2.93017621	          2.02917999	         -5.57289965	          2.12707356	          0.91837255	          0.00276456	         29.63293080	          3.00471842	         -3.24386498	        -17.14107461	         -1.05237194	          6.85189922	        -11.35216416	         -7.00553463	          5.80629472	         -3.31903167	         -2.81436930	          9.16208951	          0.25485628	          5.60596576	          0.33975913	         20.33569633	         -1.97508361	         -0.23323882	          1.99422138	         -5.31779279	        -13.48834462	          7.69606870	          5.77068769	        -13.45440631	         17.03375561	         16.06376587	         33.30979635	         86.51662706	         86.51662706	          0.05945361	          0.05945362	          0.05000065	          0.05945387	          0.05945381	          0.05944501	          0.17694964	          0.07380721	          0.20873718	          0.06818537	          0.05000081	          0.16353863	          0.28924465	          0.10611304	          0.19379271	          0.10580701	          0.05000069	          0.05004205	          0.14370025	          0.05000240	          0.05000185	          0.15770292	          0.05944689	          0.05000151	          0.27504742	          0.29635120	          0.13218126	          0.05000127	          0.10534843	          0.10306152	          0.09468964	          0.06768412	          0.06124540	          0.06280358	          0.05000017	          0.05000300	          0.05000122	          0.49767819	          0.24739510	          0.15866553	          0.16829394	          0.46423479	          0.22703366	          0.05945348	          0.11517629	          0.09995451	          0.24202498	          0.09995705	          0.07395681	          0.28123342	          0.19465261	          0.11201513	          0.05000456	          0.05000098	          0.05000058	          0.05492052	          0.10895684	          0.08596905	          0.06169409	          0.05000466	          0.05000810	          0.05000315	          0.31799164	          0.08018277	          0.05000564	          0.05000812	          0.05000481	          0.05000391	          0.43081234	          0.66713018	          0.05000063	          0.05000182	          0.05327071	          0.26316172	          0.05001391	          0.05001372	          0.05001300	          0.27730832	          0.38095865	          0.32132261	          0.29670597	          0.27553963	          0.36213530	          0.05000020	          0.05945230	          0.09729144	          0.05000121	          0.05000033	          0.05000111	          0.05000010	          0.05000043	          0.05855909	
          1.71300324	         -2.92702098	          2.12854602	         -5.87820848	          2.14419642	          0.91734241	          0.00255982	         29.07155687	          3.38511139	         -3.01548814	        -17.05366820	         -1.37308881	          6.65282226	        -11.82716147	         -8.85872577	          5.10546331	         -3.86928392	         -3.18694355	         10.14865191	          0.18934411	          4.99994446	          0.33894893	         21.57101866	         -1.77051681	         -0.43824911	          2.06080663	         -6.27549070	        -13.48495876	          7.47627487	          5.51958850	        -13.46354245	         17.37717926	         15.77990311	         34.48320414	         86.51662706	         86.51662706	          0.05000006	          0.05000020	          0.11131995	          0.05000027	          0.05000029	          0.05000029	          0.14881357	          0.06207146	          0.17554626	          0.05734366	          0.06184222	          0.13753531	          0.29897772	          0.33097521	          0.20754478	          0.11051300	          0.05000167	          0.07075957	          0.13121128	          0.05001176	          0.07738245	          0.14434745	          0.05000081	          0.07069349	          0.57231808	          0.24922892	          0.11116353	          0.05947217	          0.12352568	          0.12605927	          0.11136906	          0.06411413	          0.06399355	          0.05772481	          0.05945071	          0.05001992	          0.05944691	          0.48417032	          0.29604525	          0.19566321	          0.14153413	          0.39042090	          0.19093355	          0.05000004	          0.09686226	          0.08406089	          0.20354110	          0.08406313	          0.06219729	          0.23651530	          0.16370141	          0.09420395	          0.05000960	          0.05000379	          0.05000686	          0.05000058	          0.09163260	          0.18737532	          0.05945622	          0.05946410	          0.05945771	          0.05945735	          0.26742873	          0.06916204	          0.05003979	          0.05001976	          0.05002074	          0.05944556	          0.36230984	          0.62163637	          0.05945379	          0.05945722	          0.05945197	          0.22131682	          0.16353615	          0.16051611	          0.13769561	          0.23321387	          0.32038303	          0.27856992	          0.25535156	          0.23172833	          0.30455509	          0.05000014	          0.05000052	          0.11160658	          0.05000042	          0.05000013	          0.05000065	          0.06063176	          0.07069478	          0.05945598	
          1.72434764	         -2.91914526	          2.23187521	         -6.15256097	          2.16164374	          0.91634967	          0.00237637	         28.36940124	          3.65951712	         -2.75716769	        -16.90952173	         -1.69314341	          6.43700546	        -12.44920765	        -10.80108296	          4.52222657	         -4.55258217	         -3.58743911	         11.08114563	          0.08234870	          4.26884068	          0.26567134	         22.73377473	         -1.54203188	         -0.65423813	          2.11572865	         -7.26165751	        -13.48827282	          7.31504098	          5.18035330	        -13.47054284	         17.63416458	         15.54280712	         35.64945806	         86.51662706	         86.51662706	          0.23781718	          0.24457230	          0.31482146	          0.39754585	          0.25001643	          0.23603253	          0.12517522	          0.05961827	          0.14763319	          0.07260581	          0.05200966	          0.11566617	          0.25143794	          0.27834765	          0.17454424	          0.12263777	          0.05000193	          0.05951141	          0.11035009	          0.05000174	          0.06507986	          0.12273744	          0.05176592	          0.05945289	          0.48131460	          0.20959975	          0.20588595	          0.05001568	          0.10388439	          0.10601514	          0.09366073	          0.05391966	          0.05381841	          0.05000043	          0.05000030	          0.05000154	          0.05000188	          0.52944597	          0.29418321	          0.16455141	          0.37892423	          0.47889705	          0.16057522	          0.05943416	          0.12415601	          0.07069452	          0.31140566	          0.07069655	          0.05230787	          0.33197484	          0.13767216	          0.07922499	          0.05000528	          0.05000078	          0.05000060	          0.05000209	          0.07707035	          0.15758129	          0.05000293	          0.05000929	          0.05000517	          0.05000390	          0.28605125	          0.05817018	          0.05000355	          0.05001058	          0.05000524	          0.05000252	          0.30753107	          0.59425754	          0.05000121	          0.05000585	          0.05000265	          0.18612558	          0.13753291	          0.13499310	          0.11580120	          0.19613081	          0.26943935	          0.23427485	          0.21474873	          0.19488209	          0.25612868	          0.05000018	          0.09489660	          0.13420313	          0.05000094	          0.05000057	          0.05000092	          0.05099163	          0.05945370	          0.05000204	
          1.73569203	         -2.90893454	          2.32955104	         -6.38976572	          2.17918947	          0.91542658	          0.00216529	         27.61587891	          3.90701874	         -2.49737411	        -16.67076407	         -2.00396941	          6.23110575	        -13.03503133	        -12.87455774	          4.07537619	         -5.36886577	         -3.98999355	         11.97295892	          0.12671827	          3.45939919	          0.26433318	         23.72655211	         -1.31531794	         -0.87132046	          2.16118331	         -8.22696501	        -13.49113140	          7.20794777	          4.79003187	        -13.48471265	         17.82968770	         15.33079469	         36.79043423	         86.51662706	         86.51662706	          0.33411436	          0.33229304	          0.35027456	          0.33433354	          0.21027414	          0.19851544	          0.10622840	          0.07269178	          0.12415873	          0.06106173	          0.05000540	          0.09727436	          0.21145727	          0.23408872	          0.14679294	          0.15679577	          0.05000205	          0.05005024	          0.09280449	          0.20306642	          0.16362572	          0.15249662	          0.05000053	          0.05000068	          0.40478149	          0.17627182	          0.17314919	          0.05000043	          0.12039996	          0.13051253	          0.10587510	          0.05000027	          0.05000051	          0.05000012	          0.05000025	          0.05000086	          0.05000086	          0.60396422	          0.28249120	          0.15430021	          0.54842695	          0.51849766	          0.27898560	          0.07732970	          0.10441416	          0.05945354	          0.27857207	          0.05945533	          0.05000181	          0.27918902	          0.11578142	          0.06662774	          0.05001171	          0.05000159	          0.05000147	          0.05000101	          0.06481649	          0.15946837	          0.09552936	          0.05008974	          0.05003234	          0.05001312	          0.24056941	          0.06599881	          0.05001235	          0.05002060	          0.05001507	          0.05001370	          0.25863112	          0.54270566	          0.05000591	          0.05001008	          0.05000132	          0.15653002	          0.14132254	          0.14132219	          0.13949124	          0.16494429	          0.22659616	          0.19702308	          0.18060198	          0.16389457	          0.21540233	          0.06283632	          0.09831803	          0.13944439	          0.05000438	          0.10738363	          0.05000898	          0.07221906	          0.05000018	          0.05000021	
